<svg xmlns="http://www.w3.org/2000/svg" viewBox="0 0 64 64" fill="none">
  <defs>
    <linearGradient id="bg" x1="10" y1="8" x2="55" y2="58" gradientUnits="userSpaceOnUse">
      <stop stop-color="#132139"/>
      <stop offset="1" stop-color="#07111f"/>
    </linearGradient>
    <linearGradient id="alive" x1="18" y1="14" x2="42" y2="42" gradientUnits="userSpaceOnUse">
      <stop stop-color="#78efff"/>
      <stop offset="1" stop-color="#09c6ff"/>
    </linearGradient>
  </defs>

  <rect width="64" height="64" rx="14" fill="#040914"/>
  <rect x="7" y="7" width="50" height="50" rx="12" fill="url(#bg)" stroke="#75a1cd" stroke-opacity=".28"/>
  <rect x="12" y="12" width="40" height="40" rx="8" fill="#081221" stroke="#75a1cd" stroke-opacity=".18"/>

  <g stroke="#8fa9c2" stroke-opacity=".28" stroke-width="1.5" stroke-linecap="round">
    <path d="M22 12V52"/>
    <path d="M32 12V52"/>
    <path d="M42 12V52"/>
    <path d="M12 22H52"/>
    <path d="M12 32H52"/>
    <path d="M12 42H52"/>
  </g>

  <g fill="url(#alive)">
    <rect x="23" y="13" width="8" height="8" rx="2"/>
    <rect x="33" y="23" width="8" height="8" rx="2"/>
    <rect x="13" y="33" width="8" height="8" rx="2"/>
    <rect x="23" y="33" width="8" height="8" rx="2"/>
    <rect x="33" y="33" width="8" height="8" rx="2"/>
  </g>

  <circle cx="47" cy="17" r="7" fill="#25dbff" fill-opacity=".08"/>
</svg>
